<?xml version="1.0" encoding="UTF-8"?>
<svg xmlns="http://www.w3.org/2000/svg" version="1.1" viewBox="0 0 1000 1000">
  <defs>
    <style>
      .cls-1, .cls-2, .cls-3, .cls-4 {
        fill-rule: evenodd;
      }

      .cls-1, .cls-5 {
        fill: #06562c;
      }

      .cls-6, .cls-2 {
        fill: #fff;
      }

      .cls-3 {
        fill: #e41e26;
      }

      .cls-4 {
        fill: #fdee19;
      }
    </style>
  </defs>
  <!-- Generator: Adobe Illustrator 28.7.1, SVG Export Plug-In . SVG Version: 1.2.0 Build 142)  -->
  <g>
    <g id="Layer_1">
      <g>
        <path class="cls-2" d="M177.89,296.7L34.01,43.48l-23.69-15.25L4.98-45.66,62.86-12.18l4.68,15.85,9.86,16.43C120.68,2.7,203.2-52.87,237.32-3.96c35.25,50.54,118.74-6.69,163.56-21.91,41.12-13.96,123.94-40.83,158.32,13.9,34.59,55.06,91.27,27.76,183.82,6.2,70.26-16.37,187.35,11.36,221.61,66.97-22.34,11.71-55.53,25.27-73.57,38.35-72.54,52.57,34.11,148.94,73.76,226.17,40.79,79.45,63.51,235.72-31.27,297.69-2.77,17.58-1.08,98.69-40,112.91-52.1,182.74-220.77,317.2-419.84,317.2-240.39,0-436.44-196.06-436.44-436.44,0-126.42,54.25-240.56,140.63-320.39Z"/>
        <path class="cls-2" d="M.79,28.18C-.3,1.92-.33-23.1.59-49.37c.09-2.42,4.14-5.14,6.18-3.83L72.08-11.11l.08.69.52,31.35,1.78,2.63C107.85,3.95,204-51.73,237.32-3.96c35.25,50.54,118.74-6.69,163.56-21.91,41.12-13.96,123.94-40.83,158.32,13.9,34.59,55.06,91.27,27.76,183.82,6.2,70.26-16.37,187.35,11.36,221.61,66.97-22.34,11.71-55.53,25.27-73.57,38.35-72.54,52.57,34.11,148.93,73.76,226.17,40.79,79.45,63.51,235.72-31.27,297.69-4.54,46.62-10.1,79.66-23.4,108.76-1.8,3.93-11.86,5.03-17.5,7.26,0,0-1.06,3.55-1.63,5.43-54.85,178.38-221.35,308.66-417.31,308.66-240.39,0-436.44-196.06-436.44-436.44,0-121.36,50-231.41,130.42-310.64L24.64,47.75.79,28.18Z"/>
        <circle class="cls-5" cx="473.65" cy="617.45" r="291.32" transform="translate(-297.88 515.76) rotate(-45)"/>
        <path class="cls-2" d="M414.07,313.22l369.42,295.59c.08,2.87.13,5.74.13,8.63,0,1.21-.03,2.41-.05,3.62l-381.5-305.26c3.97-.94,7.97-1.8,12-2.58Z"/>
        <path class="cls-2" d="M321.41,347.41l449.11,359.36c-.98,3.26-2,6.51-3.08,9.73l-454.83-363.94c2.9-1.76,5.84-3.47,8.8-5.15Z"/>
        <path class="cls-2" d="M252.33,400.47l481.58,385.34c-1.73,2.67-3.51,5.32-5.32,7.93L245.75,407.39c2.16-2.34,4.35-4.65,6.58-6.92Z"/>
        <path class="cls-2" d="M201.83,468.39l476.8,381.52c-2.42,2.14-4.86,4.25-7.35,6.31L197.29,476.95c1.47-2.88,2.99-5.73,4.54-8.56Z"/>
        <path class="cls-2" d="M170.67,551.79l433.49,346.86c-3.23,1.51-6.49,2.97-9.78,4.37l-425.81-340.71c.63-3.53,1.35-7.03,2.1-10.51Z"/>
        <path class="cls-2" d="M166.11,656.48l336.86,269.54c-4.63.44-9.28.78-13.97,1.01l-320.82-256.71c-.79-4.58-1.49-9.19-2.07-13.84Z"/>
        <path class="cls-1" d="M473.71,193.26c233.44,0,423.83,190.39,423.83,423.83,0,38.75-5.28,76.3-15.1,112.01-4.88,1.08-9.74,2.11-14.54,3.34,10.76-36.62,16.56-75.33,16.56-115.35,0-226.24-184.51-410.76-410.75-410.76-110.46,0-210.96,44-284.91,115.35l-6.57-11.82c76.06-72.21,178.74-116.61,291.48-116.61h0ZM879.04,740.81l-14.83,3.48c-53.76,164.3-208.64,283.55-390.51,283.55-226.24,0-410.75-184.52-410.75-410.76,0-112.02,45.26-213.81,118.4-288.04l-6.65-11.87c-77.04,76.81-124.83,182.95-124.83,299.9,0,233.44,190.39,423.83,423.83,423.83,190.43,0,352.19-126.7,405.34-300.11Z"/>
        <g>
          <path class="cls-1" d="M473.71,304.97c171.91,0,312.12,140.21,312.12,312.12s-140.21,312.12-312.12,312.12-312.12-140.21-312.12-312.12c0-74.46,26.32-142.96,70.11-196.71l.86-.86,6.58,11.76-.77.9c-40.16,50.98-64.17,115.23-64.17,184.91,0,164.97,134.54,299.51,299.51,299.51s299.51-134.54,299.51-299.51-134.54-299.51-299.51-299.51c-79.76,0-152.41,31.46-206.18,82.59l-16.59-1.32c56.71-57.88,135.66-93.88,222.77-93.88Z"/>
          <path class="cls-6" d="M473.71,929.46c-42.05,0-82.89-8.28-121.39-24.61-37.18-15.77-70.59-38.33-99.31-67.05-28.72-28.72-51.28-62.14-67.05-99.31-16.33-38.5-24.61-79.35-24.61-121.39,0-36.44,6.27-72.17,18.65-106.21,11.95-32.87,29.28-63.37,51.52-90.66l1.11-1.11,6.83,12.21-.88,1.03c-41.94,53.23-64.11,117.12-64.11,184.74,0,165.01,134.25,299.26,299.26,299.26s299.26-134.25,299.26-299.26-134.25-299.26-299.26-299.26c-76.89,0-150.05,29.31-206,82.52l-.08.08-17.24-1.37.37-.38c28.81-29.41,62.48-52.52,100.06-68.7,38.93-16.76,80.27-25.26,122.88-25.26s82.89,8.28,121.39,24.61c37.18,15.77,70.59,38.33,99.31,67.05,28.72,28.72,51.28,62.14,67.05,99.31,16.33,38.5,24.61,79.35,24.61,121.39s-8.28,82.89-24.61,121.39c-15.77,37.17-38.33,70.59-67.05,99.31-28.72,28.72-62.14,51.28-99.31,67.05-38.5,16.33-79.34,24.61-121.39,24.61ZM232.5,419.93l-.63.63c-45.16,55.42-70.03,125.23-70.03,196.53,0,171.97,139.91,311.87,311.87,311.87s311.87-139.91,311.87-311.87-139.91-311.87-311.87-311.87c-84.08,0-162.98,33.18-222.21,93.43l15.94,1.27c56.04-53.25,129.29-82.58,206.27-82.58,40.35,0,79.54,7.95,116.49,23.62,35.67,15.13,67.74,36.78,95.3,64.35,27.56,27.56,49.21,59.63,64.35,95.3,15.67,36.95,23.62,76.14,23.62,116.49s-7.95,79.54-23.62,116.49c-15.13,35.67-36.78,67.74-64.35,95.3-27.56,27.56-59.63,49.21-95.3,64.35-36.95,15.67-76.14,23.62-116.49,23.62s-79.54-7.95-116.49-23.62c-35.67-15.13-67.74-36.78-95.3-64.35-27.56-27.56-49.21-59.63-64.35-95.3-15.67-36.95-23.62-76.14-23.62-116.49,0-34.11,5.73-67.6,17.04-99.55,10.92-30.87,26.8-59.64,47.18-85.51l.66-.77-6.33-11.32Z"/>
        </g>
        <path class="cls-3" d="M64.41,26.49c.97,1.75,2.95,5.71,5.44,9.22,25.58-12.98,128.55-78.5,163.64-28.2,35.26,50.54,121.29-6.69,166.11-21.91,41.13-13.96,118.83-42.11,153.22,12.63,34.6,55.07,96.37,29.04,188.92,7.47,70.26-16.37,165.68,6.26,206.31,51.67-22.34,11.71-42.84,21.36-60.82,33.24-86.86,57.41,26.45,161.68,66.11,238.92,40.79,79.46,60.09,201.46-15.72,279.8-53.16-69.74-117.29-110.82-244.77-67.2-69.95,22.26-102.28,14.52-117.6-27.3-13.29-36.28-61.9-46.42-118.3-21.91-36.41,15.82-54.96,27.79-102.61,54.13l194.53,351.84c-11.62,3.1-23.53,5.49-35.68,7.14l-2.52-4.85C352.15,615.41,202.24,345.68,31.67,39.28L11.89,22.07l.04-57.48L61.87-6.01l2.53,32.5Z"/>
        <polygon class="cls-4" points="478.67 100.78 559.26 221.78 692.25 222.37 609.46 297.75 688.99 419.12 557.23 344.7 473.4 419.12 474.76 297.75 343.42 222.37 476.02 221.78 478.67 100.78"/>
        <path class="cls-2" d="M933.2,603.74c-1.83,2.78-2.07,13.91-3.64,16.17-22.36-43.04-48.03-71.49-115.26-87.19-53.92-6.81-101.11,11.89-106.63,15.42-.95.02-21.72,4.47-27.99,6.37-46.82,14.15-88.9,4.64-102.91-17.25-12.12-18.94-7.89-42.45-53.29-46.85-54.65-5.31-117.73,41.19-155.83,62.7l190.39,343.21c-3.04.92-6.1,1.79-9.17,2.61l-194.53-351.84c47.66-26.34,66.2-38.31,102.61-54.13,56.39-24.51,105.01-14.37,118.3,21.91,15.32,41.81,59.42,44.88,129.32,22.49,106.7-34.19,178.6-14.54,228.64,66.39Z"/>
        <polygon class="cls-2" points="464.71 727.63 481.98 759.29 473.77 762.92 459.4 736.95 464.71 727.63"/>
        <polygon class="cls-2" points="665.64 733.27 542.52 745.76 515.6 749.07 478.98 772.61 463.79 745.35 454.22 756.05 435.9 766.71 443.05 779.33 413 780.51 387.53 772.06 385.13 752.6 364.06 742.39 354.72 728.61 353.01 716.53 337.63 714.27 333.22 701.92 342.15 680.35 330.48 670.35 327.07 655.52 333.04 645.37 345.1 638.91 349.84 636.32 377.74 636.31 387.46 601.45 398.28 595.61 442.13 582.15 454.36 583.99 518.23 622.74 526.04 629.91 635.72 603.39 714.89 574.84 774.89 551.48 869.96 666.55 852.24 709.14 822.73 716.64 665.64 733.27"/>
        <path class="cls-3" d="M358.58,641.14l-1.14-.02h-.02c-4.74-.48-16.24,6.03-19.65,9.57-1.56,1.62-2.33,4.1-2.47,6.81-.41,8.3,3.99,11.98,9.37,17.14,5.53-.68,10.84-.63,16.14-.57,3.23.03,6.46.06,9.66-.08-.06-.73-.12-1.45-.18-2.16h0s.08-23.91.08-23.91c-.27-10.66-1.32-7.83-11.79-6.78h0ZM381.3,641.33l12.25-.84,3.7,1.12,5.94,4.51,2.27,1.72-.09,2.84-.48,14.98-5.4-3.22-1.58-13.43-5.43-3.43-11.13.77c.03,1.3.06,2.59.11,3.87.04,1.24.12,2.75.23,4.52l.2,18.85c.75.62,2.34,1.58,3.66,2.36l.11.07c1.69,1.01,3.56,1.84,5.4,2.16.42.07.74.12.94.13.27.02.57.02.88,0h.22c5.77-.28,10.01-.48,14.11-3.57,2.08-1.57,5.88-7.05,9-12.45l5.15-14.11c.21-1.77.58-3.62,1.05-5.75l-.81-17.28,6.65-.66h-.02c1.25,2.21,3.07,5.41,3.41,5.88,7.27,2.67,16.36,2.46,22,3.43-.89,2.17-2.56,5.26-6.88,7.26-6.01-.42-9.11.5-11.96-.99,2.74,10.28,6.66,17.28,10.8,25.31,4.79,9.29,11.94,16.44,22.97,25.27l16.41,10.05-1.41,5.33-14.62-3.88c-.52,2.36-1.52,4.69-2.2,6.85-.56,1.76-1.4,3.4-2.56,4.86-3.01,4.19-12.69,15.6-18.62,20.55-.77.65-1.46,1.22-1.81,1.52h0s0,0,0,0l-.07.04-.07.06h0s-1.18.76-1.18.76c-16.16,7.74-27.52,12.23-44.79,17.32-.74.32-1.43.69-2.07,1.1-.67.43-1.19.85-1.59,1.24-1.72,1.69-2.22,2.94-2.09,3.27,1.81,4.5,2.22,7.55,4.09,9.32,1.46,1.38,3.31,3.27,5.87,3.33,21.11-3.12,35.77-11.79,56.03-22.4,0,0,9.54-10.24,14.18-18.12,2.15,5.68,1.73,6.95,2.88,10.07-4.18,7.22-12.07,16.94-15.97,18.4-3.02,2.66-2.48,2.26-4.79,3.75-7.84,5.03-24.44,11.57-31.95,14.52,5.84-.12,13.72-1.35,19.16-2.22,3.36-.54,10.27-4.53,14.05-5.93l.02-.02h0l2.16,5.94,1.62,4.39h-.02s0,.02,0,.02h0c-2.51.92-5.22,1.75-8.04,2.46-2.89.72-5.91,1.34-8.98,1.83-15.63,2.5-30.26,2.09-41.84-2.98-4.85-.33-8.64-1.89-11.94-5.01-5.63-5.33-10.42-14.32-7.54-22.09-1.51-.26-6.68-.59-8.05-1-6.28-1.9-11.08-5.36-14.44-9.75-4.48-5.86-11.11-15.89-5.61-21.83-5.82-.33-10.28.06-13.84-3.37-6.83-6.57-13.86-18.98-12.46-29.01.61-4.37,2.8-6.24,7.6-10.26l-2.22-2.13c-5.43-5.2-7.92-13.32-7.55-20.7,1.51-7.44,1.99-10.19,5.52-13.86,6.7-5.28,20.12-13.43,28.06-12.95l12.87-1.29c.16-2.16.36-4.25.61-6.27h0c1.19-9.62,4.56-20.34,13.17-25.76h0c1.88-1.19,4.26-2.46,6.99-3.76,16.14-7.67,47.62-21.5,64.6-17.29,27.72,6.87,50.93,27.43,72.9,44.67,1.14.89,2.04,1.93,2.75,3.05l135.51-41.84c15.81.24,26.83,2.28,35.95,5.12l-168.9,46.58c.22,4.31-.15,8.75.3,12.34.29,2.32.6,4.76,1.17,7.2l-7.28,1.7c-.69-2.96-1.04-5.71-1.37-8.33-.67-5.28-4.7-14.02-8.67-17.14-18.54-14.54-40.74-35.55-64.14-41.35-14.98-3.71-43.72,8.46-58.09,15.29-2.44,1.16-4.45,2.22-5.88,3.12h0c-3.52,2.22-5.66,6.75-6.92,11.54-.27,1.04-.5,2.08-.69,3.11-.18.95-.33,1.99-.47,3.09h0c-.51,4.16-.82,8.68-.94,13.32l.23-.02c-.11.89-.2,1.8-.29,2.72,0,.49-.01.98-.01,1.47h0ZM691.82,574.03c8.29.64,18.33,3.57,28.55,7.97l48.89-13.49-12.29-14.6-65.15,20.12h0ZM377.09,683.66c13.09,8.82,18.86,6.35,32.08.98h-.02c10.29-4.2,10.94-7.41,15.42-18.05.44-.12.89-.24,1.33-.35.16.38,12.68,12.97,9.91,16.21-3.21,4.7-14.92,15.78-18.8,17.21-10.9,5.28-49.54,9.5-61.01,10.62-12.65,2.83-16.42-5.46-18.57-16.3.36-2.57,2.31-7.82,7.2-8.23,10.71-1.59,21.61-.56,32.45-2.1h0ZM484.95,764.56l4.95,8.93c9.92-3.48,30.2-11.46,36.45-19.31.51-.22,2.19-.31,4.65-.43,2.1-.1,4.57-.22,7.3-.55h0c27.92-3.41,67.78-4.68,120.75-10,37.81-3.79,61.03-5.33,80.76-7.16h0c20.71-8.9,22.01-14.55,30.17-20.8-75.3,9.8-156.04,18.82-232.99,27.01h0c-2.64.32-4.73.42-6.52.51-5.29.26-8.72.43-12.03,3.75l-.43.47c-4.57,5.81-25.29,14.86-33.05,17.59h0ZM456.1,694.66c-2.43-2.08-4.66-6.6-6.71-8.64-4.63,2.74-15.25,15.47-20.84,18.75-2.3,1.71-4.61,3.86-7.55,4.65-22.7,6.11-39.81,9.15-57.01,11.11-5.77,4.55-1.36,9.05,3.17,16.98,4.54,5.93,12.31,6.14,19.35,5.68,14.26-3.98,43.81-10.5,55.13-19.95,5.63-4.71,14.13-14.2,16.07-17.03l.3-.39c.32-.39.56-.86.73-1.4.52-1.64.37-3.74-.33-5.83-.36-1.07-1.16-2.47-2.3-3.94Z"/>
        <path class="cls-3" d="M166.11,376.22l19.01,13.81,2.74-3.77,3.77,2.74-2.74,3.77,19.01,13.81-8.6,11.83c-2.1,2.89-3.96,4.93-5.61,6.11-4.31,3.09-9.84,3.45-16.61,1.09-3.31-1.15-6.8-3.06-10.46-5.73-7.96-5.78-12.43-11.72-13.41-17.8-.45-2.67-.24-5.28.63-7.82.48-1.42,1.57-3.3,3.29-5.67l8.98-12.37h0ZM167.75,384.34l-5.3,7.3c-1.94,2.68-3.06,5.05-3.34,7.11-.34,2.39.32,4.88,1.99,7.45,2.07,3.19,5.06,6.2,8.95,9.03,8.09,5.88,14.57,7.44,19.43,4.66,1.39-.79,3.05-2.52,4.98-5.18l5.22-7.18-14.08-10.23-6.87,9.46-3.77-2.74,6.87-9.46-14.08-10.23h0ZM162.76,425.3c-6.04-3.49-12.06-4.97-18.06-4.44-6.63.59-11.51,3.58-14.62,8.97-3.1,5.36-3.3,11.03-.62,17,2.43,5.42,6.96,10.05,13.6,13.88,4.8,2.77,9.39,4.4,13.79,4.87,4.11.43,7.84-.09,11.17-1.52,3.57-1.55,6.36-4.04,8.34-7.47,3.44-5.96,3.47-11.99.12-18.11-2.8-5.12-7.37-9.5-13.71-13.17h0ZM159.78,430.25c-5.53-3.2-10.51-4.46-14.94-3.78-4.43.67-7.66,2.76-9.68,6.26-2.53,4.37-2.38,8.84.43,13.42,2.24,3.68,5.73,6.89,10.47,9.63,3.84,2.22,7.65,3.58,11.4,4.1,2.78.38,5.4.05,7.85-1,2.6-1.11,4.57-2.84,5.94-5.21,2.64-4.57,2.48-9.16-.48-13.75-2.3-3.55-5.95-6.77-10.98-9.67h0ZM119.57,452.64l41.8,34.44-2.26,5.59-54.39-3.27,2.4-5.94,16.35,1.29,6.62-16.39-12.76-10.19,2.23-5.52h0ZM134.66,471.91l-5.37,13.3,14.91,1.28c4.26.38,7.94.79,11.06,1.24-3.02-1.86-5.8-3.79-8.3-5.82l-12.29-10h0ZM161.53,495.8l1.31-3.26,11.17-4.68-2.42,5.97-10.07,1.96h0ZM102.53,495.19l49.65,14.24-1.58,5.53-45.12,10.22,38.98,11.18-1.47,5.14-49.65-14.24,1.58-5.5,45.16-10.2-39.03-11.19,1.49-5.18h0ZM86.66,561.9l45.11,6.34,1.94-13.82,6.04.85-4.67,33.25-6.04-.85,1.95-13.88-45.11-6.34.78-5.55h0ZM83.97,590.75l51.62,1.8-.2,5.6-21.2-.74-.77,22.01,21.2.74-.2,5.6-51.62-1.8.2-5.6,24.33.85.77-22.01-24.33-.85.2-5.6h0ZM83.12,631.59l52.66,12.63.42,6.01-50.32,20.9-.45-6.4,15.26-6.01-1.23-17.64-15.93-3.56-.41-5.94h0ZM105.13,642.29l1,14.31,13.96-5.39c3.99-1.53,7.48-2.78,10.48-3.73-3.53-.35-6.87-.87-10.01-1.59l-15.43-3.6h0ZM87.57,677.86l.94,5.31,39.98-7.05-36.12,28.96.99,5.64,50.87-8.97-.93-5.27-39.93,7.04,36.07-28.96-1-5.66-50.87,8.97h0ZM97.31,721.86l49.12-15.96,1.73,5.33-20.18,6.56,6.8,20.94,20.18-6.55,1.73,5.33-49.12,15.96-1.73-5.33,23.15-7.52-6.8-20.94-23.15,7.52-1.73-5.33h0ZM116.88,777.02l46.02-23.45,2.61,5.12-26.03,38.25,36.14-18.41,2.43,4.77-46.02,23.45-2.6-5.1,26.07-38.26-36.18,18.43-2.45-4.8h0ZM138.51,818.28l2.97,4.75,43.8-27.37-2.97-4.75-43.8,27.37h0ZM148.46,833.21l18.13,25.89,4.99-3.5-14.91-21.3,14.4-10.08,13.44,19.19,4.97-3.48-13.44-19.19,12.95-9.07,14.35,20.49,5-3.5-17.56-25.08-42.31,29.63h0ZM210,812l-3.93,9.51-2.12-3.02,1.85-6.94-7.11-.57-2.12-3.03,10.27-.44,3.15,4.5h0ZM173.22,866.67l39.57-33.2,3.69,4.41-16.76,43.12,31.07-26.07,3.44,4.1-39.57,33.2-3.68-4.39,16.8-43.14-31.1,26.1-3.46-4.13h0ZM248.59,914.3c-2.89,2.54-5.78,4.1-8.65,4.7-3.42.71-6.5-.05-9.23-2.26-3.93-3.18-5.27-7.38-4.03-12.61.93-3.92,3.18-8.08,6.75-12.48,2.94-3.63,5.85-6.25,8.72-7.86,5.59-3.12,10.64-2.84,15.17.82,4.4,3.56,5.06,8.73,2,15.51l5.27,2.22c2.01-4.24,2.8-8.19,2.36-11.88-.47-4.09-2.43-7.53-5.87-10.33-2.89-2.34-6.14-3.69-9.77-4.06-7.84-.77-15.3,3.22-22.36,11.94-3.63,4.48-6.08,8.93-7.33,13.37-2.43,8.37-.59,15.02,5.5,19.96,3.85,3.12,8.07,4.35,12.64,3.71,3.97-.59,8.02-2.54,12.12-5.86l-3.29-4.9h0ZM261.57,915.25c3.99-6.14,8.62-10.48,13.87-13.01,6.28-3.03,12.31-2.68,18.08,1.07,3.33,2.16,5.67,5.07,7.03,8.72,1.26,3.4,1.58,7.15.94,11.23-.7,4.36-2.56,8.86-5.58,13.51-4.17,6.43-9.03,10.71-14.57,12.85-6.1,2.37-11.75,1.86-16.94-1.51-5.23-3.39-7.95-8.42-8.2-15.07-.21-6.02,1.58-11.95,5.38-17.8h0ZM266.36,918.49c3.16-4.87,6.57-8.35,10.23-10.46,4.73-2.72,9.32-2.64,13.75.24,2.29,1.49,3.92,3.55,4.89,6.2.91,2.5,1.11,5.14.58,7.89-.71,3.72-2.27,7.45-4.69,11.17-2.98,4.59-6.37,7.91-10.16,9.95-4.72,2.57-9.19,2.47-13.43-.28-3.39-2.2-5.31-5.54-5.74-10-.44-4.46,1.08-9.37,4.56-14.72h0ZM301.22,895.93l-4.61-2.99-9.36,4.25,3.1,2.01,6.81-2.14.88,7.12,3.1,2.02.08-10.28h0ZM256.04,956.57l4.35,2.82,3.97-6.11-4.35-2.82-3.97,6.11h0ZM289.94,962.57l4.88,2.28,17.16-36.8,3.01,46.2,5.19,2.42,21.83-46.81-4.85-2.26-17.14,36.75-3.03-46.16-5.21-2.43-21.83,46.81h0ZM357.3,969.01l1.98-5.76,16.95,5.84-6.24,18.13c-6.97,3.29-13.38,3.92-19.25,1.91-8.22-2.83-12.82-8.7-13.8-17.61-.48-4.36.18-9.17,2-14.44,1.58-4.59,3.75-8.55,6.5-11.88,3.27-3.93,6.96-6.39,11.08-7.4,3.56-.89,7.32-.65,11.28.72,5.81,2,9.47,5.59,10.97,10.75.7,2.49.82,5.62.35,9.35l-5.31-.04c.54-5.11-.48-8.97-3.07-11.56-1.34-1.34-3.02-2.35-4.98-3.03-5.85-2.01-11.01-.56-15.52,4.35-2.34,2.54-4.25,5.96-5.72,10.24-1.9,5.51-2.37,10.32-1.44,14.45,1.14,5.01,4.29,8.41,9.46,10.19,2,.69,4.27.94,6.82.74,2.53-.2,4.72-.79,6.56-1.8l3.13-9.1-11.76-4.05h0ZM392.42,982.44l5.3.46c-.47,5.13.88,8.94,4.08,11.45,1.65,1.3,3.6,2.17,5.89,2.61,2.93.57,5.46.34,7.59-.68,2.4-1.14,3.87-3.12,4.43-5.95.58-2.97-.3-5.45-2.65-7.41-1.22-.99-3.89-2.57-8.03-4.71-2.99-1.57-5.16-2.93-6.52-4.07-2.09-1.74-3.45-3.85-4.13-6.29-.59-2-.67-4.13-.23-6.4.83-4.29,2.89-7.43,6.17-9.42,3.19-1.97,6.94-2.52,11.25-1.69,6.36,1.24,10.4,4.47,12.1,9.72.91,2.75,1.07,5.58.51,8.45l-5.38-.54c.7-6.59-2.03-10.48-8.2-11.68-2.71-.53-5.02-.39-6.94.42-2.24.92-3.6,2.67-4.1,5.23-.49,2.54.21,4.67,2.1,6.4.99.9,3.06,2.15,6.2,3.72,3.94,1.94,6.62,3.48,8.08,4.62,4.6,3.6,6.35,8.32,5.21,14.15-.55,2.83-1.7,5.29-3.44,7.37-1.81,2.19-4.04,3.69-6.67,4.5-2.64.82-5.6.91-8.91.27-5.14-1-8.94-3.34-11.41-7.03-2.53-3.79-3.3-8.28-2.29-13.47h0ZM427.76,1005.43l5.93.52,6.01-15.18,17.61,1.54,3.55,16.02,6.39.56-12.77-52.97-6-.53-20.71,50.04h0ZM441.78,985.36l5.97-14.68c1.2-2.99,2.24-6.2,3.14-9.64.48,3.11,1.16,6.75,2.05,10.94l3.14,14.63-14.29-1.25h0ZM450.34,951.75c.36-4.16,6.88-6.02,4.1-9.57-.55-.69-1.26-1.09-2.15-1.16-1.99-.17-3.32.89-4.03,3.2l-2.73-.24c.4-4.54,3.62-7.46,9.23-6.06,3.51.88,5.54,3.01,4.98,6.59-.48,3.06-4.87,3.72-6.09,7.38l-3.31-.14h0ZM474.17,1008.17l-1.8-51.62,5.75-.2,23.66,39.75-1.41-40.53,5.35-.19,1.8,51.62-5.72.2-23.65-39.8,1.42,40.58-5.38.19h0ZM532.9,1003.85l-9.86-50.71,5.5-1.07,4.05,20.83,21.62-4.2-4.05-20.83,5.5-1.07,9.86,50.7-5.5,1.07-4.64-23.9-21.61,4.2,4.64,23.9-5.5,1.07h0ZM567.51,971.3c2.27,6.59,5.84,11.66,10.71,15.2,5.39,3.91,11.03,4.85,16.92,2.82,5.86-2.02,9.73-6.16,11.62-12.42,1.72-5.68,1.34-12.15-1.16-19.39-1.81-5.24-4.21-9.48-7.22-12.72-2.82-3.02-5.97-5.08-9.43-6.18-3.71-1.18-7.44-1.12-11.2.17-6.5,2.24-10.49,6.77-11.97,13.59-1.25,5.7-.67,12.01,1.71,18.94h0ZM573.01,969.52c-1.89-5.49-2.53-10.32-1.94-14.51.77-5.41,3.67-8.97,8.66-10.69,2.58-.89,5.21-.9,7.9-.04,2.53.82,4.73,2.29,6.58,4.4,2.49,2.84,4.47,6.37,5.91,10.57,1.78,5.17,2.31,9.89,1.59,14.13-.88,5.31-3.71,8.77-8.49,10.42-3.82,1.31-7.63.77-11.41-1.63-3.79-2.4-6.72-6.62-8.8-12.65h0ZM576.69,928.14l8.06,6.41-3.5,1.21-6.16-3.7-2.5,6.69-3.49,1.2,2.4-10.01,5.2-1.79h0ZM587.7,926.56l-3.33,1.15-10.86-5.34,6.09-2.1,8.1,6.29h0ZM653.34,943.61l5.79-1.12c1.45,5.08,1.67,9.56.66,13.45-1.2,4.46-3.98,7.86-8.35,10.19-6.92,3.68-13.77,2.77-20.52-2.74-3.59-2.9-6.74-6.89-9.44-11.98-5.27-9.91-6.03-18.33-2.26-25.25,1.76-3.2,4.27-5.67,7.55-7.41,3.92-2.08,7.86-2.54,11.8-1.37,3.56,1.04,6.89,3.31,10.01,6.81l-4.11,3.98c-5.04-5.47-10.06-6.87-15.06-4.21-5.14,2.73-7.37,7.28-6.68,13.64.36,3.27,1.64,6.98,3.83,11.09,2.66,5,5.61,8.7,8.85,11.09,4.32,3.19,8.72,3.59,13.18,1.22,3.11-1.66,5.01-4.19,5.69-7.62.57-2.88.26-6.15-.94-9.79h0ZM675.22,952.44l4.7-3.05-13.26-20.42,18.47-11.99,13.26,20.41,4.7-3.05-28.13-43.32-4.7,3.05,11.55,17.79-18.47,11.99-11.55-17.79-4.7,3.05,28.13,43.32h0ZM713.01,926.12l-32.51-40.14,4.35-3.53,32.51,40.14-4.36,3.53h0ZM682.76,867.03l-5.65,4.57,1.17,11.46,3.07-2.48,1.41-13.55h0ZM737.56,906.24l-37.78-35.22,5.75-6.17,40.49,21.31-4.46-7.26-19.36-31.93,5.14-5.51,37.78,35.22-3.67,3.94-31.62-29.49,23.21,38.5-3.44,3.69-40.52-21.02,32.16,29.99-3.67,3.94h0ZM773.91,867.5l3.45-4.42-40.7-31.8-3.45,4.42,40.7,31.8h0ZM784.67,853.9l3.09-4.41-33.26-23.29,46.02,5.06,3.28-4.69-42.31-29.63-3.07,4.38,33.22,23.26-45.99-5.02-3.3,4.71,42.31,29.63h0ZM810.62,816.65l-46.02-23.45,2.54-4.99,18.9,9.63,10-19.62-18.9-9.63,2.54-4.99,46.03,23.45-2.54,4.99-21.69-11.05-10,19.62,21.69,11.05-2.54,4.99Z"/>
        <path class="cls-3" d="M184.88,388.51l2.09-2.88.64-.88.88.64,3.77,2.74.89.65-.64.88-2.1,2.88,18.13,13.17.88.65-.64.88-8.6,11.83c-1.07,1.48-2.09,2.74-3.06,3.79-.98,1.07-1.91,1.92-2.8,2.56h0c-2.32,1.67-4.97,2.6-7.95,2.79-2.91.19-6.13-.33-9.65-1.56-1.71-.6-3.46-1.39-5.26-2.37-1.8-.98-3.63-2.15-5.49-3.5h0l-.02-.02h0c-1.13-.83-2.2-1.66-3.19-2.49-.99-.82-1.92-1.66-2.79-2.52-4.48-4.38-7.09-8.88-7.84-13.49v-.04h0c-.06-.39-.11-.79-.15-1.19-.04-.39-.06-.79-.07-1.19-.05-2.02.25-3.99.91-5.92h0s0,0,0,0h0c.07-.21.16-.44.27-.7.1-.24.21-.48.33-.73.62-1.28,1.57-2.78,2.83-4.52l8.98-12.37.65-.88,19.01,13.81h0ZM184.48,390.91l-18.13-13.17-8.34,11.48c-1.2,1.66-2.08,3.05-2.64,4.19-.11.22-.2.43-.29.63-.07.17-.14.35-.21.55h0c-.57,1.71-.84,3.43-.79,5.18,0,.34.03.68.06,1.03.03.34.08.69.14,1.04h0s0,.05,0,.05c.67,4.13,3.07,8.23,7.21,12.28.81.79,1.69,1.59,2.66,2.4.95.8,1.98,1.6,3.07,2.39h0s.02.02.02.02h.01c1.8,1.32,3.55,2.44,5.25,3.36,1.69.92,3.34,1.67,4.94,2.22,3.24,1.13,6.18,1.61,8.8,1.44,2.55-.17,4.83-.97,6.81-2.39h0c.76-.54,1.58-1.29,2.47-2.26.9-.98,1.87-2.18,2.89-3.6l7.96-10.95-18.13-13.17-.88-.64.64-.88,2.1-2.88-2-1.45-2.09,2.88-.64.88-.88-.64h0ZM167.99,385.86l-4.66,6.41c-1.84,2.53-2.89,4.74-3.15,6.62h0s0,.03,0,.03c-.04.3-.07.59-.07.88,0,.29,0,.59.03.89h0c.15,1.57.76,3.2,1.86,4.9h0s0,0,0,0h0c.28.44.57.86.89,1.29.3.41.63.82.99,1.26,1.8,2.15,4.06,4.22,6.79,6.2h0s0,.01,0,.01h0c1.12.81,2.19,1.53,3.23,2.16,1.05.64,2.05,1.19,3.02,1.65,4.82,2.32,8.82,2.57,11.99.77.6-.34,1.28-.91,2.04-1.69.79-.82,1.66-1.88,2.6-3.18l4.58-6.3-12.31-8.94-6.23,8.57-.64.88-.88-.64-3.77-2.74-.88-.64.64-.88,6.23-8.57-12.31-8.94h0ZM161.56,390.99c-2.05,2.82-3.23,5.36-3.54,7.61h0v.03s0,0,0,0c-.05.37-.08.75-.09,1.13,0,.38,0,.76.04,1.14h0c.18,1.93.92,3.9,2.2,5.89v.02s.01,0,.01,0h0c.3.46.62.92.95,1.37.35.47.71.93,1.07,1.36,1.91,2.29,4.31,4.48,7.18,6.57h0s0,0,0,0h0c1.15.84,2.27,1.59,3.38,2.27,1.09.67,2.16,1.25,3.21,1.76,5.51,2.65,10.18,2.88,14,.7.79-.45,1.63-1.14,2.53-2.08.87-.9,1.8-2.04,2.8-3.41l5.21-7.18.64-.88-.88-.64-14.08-10.23-.88-.64-.64.88-6.23,8.57-2-1.45,6.23-8.57.64-.88-.88-.64-14.08-10.23-.88-.64-.64.88-5.3,7.3h0ZM163.3,424.35h0c-4.47-2.58-8.94-4.09-13.41-4.54-.86-.09-1.74-.13-2.62-.14-.9,0-1.77.03-2.61.1h-.05c-5.02.45-9.1,2.22-12.23,5.3-.62.6-1.19,1.25-1.72,1.95-.53.69-1.03,1.44-1.49,2.23l-.02.03c-2.35,4.07-3.13,8.3-2.34,12.7.15.85.36,1.71.63,2.58.27.86.6,1.73.98,2.6h0s.05.11.05.11c1.82,4.06,4.77,7.69,8.83,10.88.79.62,1.61,1.22,2.48,1.8.87.59,1.78,1.15,2.72,1.7h.02s0,.01,0,.01h0c2.46,1.42,4.87,2.55,7.21,3.37,2.37.84,4.7,1.38,6.99,1.62h0c3.08.32,5.95.13,8.63-.56.55-.14,1.07-.29,1.55-.46.51-.17,1.02-.37,1.5-.58h0s.03-.02.03-.02h0c2.73-1.19,5.03-2.89,6.89-5.1.36-.43.71-.89,1.03-1.35.3-.44.61-.92.91-1.44h0s.01-.04.01-.04c1.81-3.14,2.73-6.33,2.76-9.53.02-3.21-.85-6.42-2.62-9.64h0c-2.09-3.81-5.12-7.23-9.09-10.25h0c-.77-.59-1.57-1.16-2.41-1.71-.84-.55-1.71-1.09-2.62-1.62h0s-.01,0-.01,0h0ZM162.22,426.26h-.01s0-.01,0-.01c-4.2-2.43-8.38-3.85-12.53-4.26-.82-.08-1.62-.13-2.42-.13-.78,0-1.59.03-2.42.1h-.04s0,0,0,0c-4.5.4-8.13,1.96-10.9,4.68-.53.53-1.04,1.1-1.52,1.72-.48.62-.92,1.29-1.34,2l-.02.03c-2.08,3.6-2.77,7.35-2.08,11.23.13.77.32,1.54.57,2.31.24.78.54,1.57.9,2.37h0s.04.1.04.1c1.68,3.73,4.4,7.08,8.19,10.05.74.58,1.53,1.15,2.35,1.71.81.54,1.68,1.08,2.59,1.61h0s0,0,0,0h0c2.33,1.35,4.62,2.43,6.87,3.22,2.22.78,4.38,1.29,6.49,1.51h0c2.82.29,5.45.13,7.87-.5.44-.11.91-.25,1.39-.42.45-.15.89-.33,1.34-.52h.02s0,0,0,0c2.41-1.04,4.43-2.54,6.08-4.5.32-.38.62-.78.91-1.2.31-.44.59-.88.84-1.31v-.03s.02,0,.02,0h0c1.61-2.8,2.43-5.61,2.45-8.42.02-2.83-.77-5.69-2.36-8.58h0c-1.94-3.55-4.78-6.74-8.5-9.57h0c-.73-.55-1.49-1.09-2.29-1.63-.8-.53-1.64-1.04-2.5-1.54h0ZM159.23,431.19c-2.67-1.54-5.21-2.62-7.6-3.23-2.35-.6-4.56-.73-6.63-.42h-.02c-.59.1-1.16.21-1.67.35-.52.14-1.03.3-1.52.5-2.46.96-4.36,2.59-5.68,4.88h0c-1.16,2.01-1.71,4.03-1.64,6.06.07,2.04.75,4.13,2.06,6.26h0s0,.01,0,.01h0c.3.49.62.97.96,1.44.33.45.7.92,1.11,1.39h0c2.04,2.37,4.71,4.51,8,6.41h0l.03.02h0c.5.29,1.02.57,1.57.85.5.26,1.02.51,1.55.75,2.65,1.2,5.27,1.98,7.85,2.34h.04c.35.05.71.09,1.07.11.38.02.73.04,1.06.03,1.78-.01,3.48-.37,5.11-1.06,1.19-.51,2.24-1.16,3.14-1.95.89-.79,1.65-1.72,2.28-2.8h0s.06-.11.06-.11h0c.34-.6.63-1.19.86-1.78.23-.58.41-1.17.54-1.76.67-2.97.03-5.96-1.92-8.97h0c-1.09-1.68-2.52-3.3-4.27-4.85-1.78-1.57-3.89-3.06-6.34-4.47h0ZM152.16,425.85c-2.63-.67-5.13-.82-7.49-.46h-.02s0,0,0,0c-.64.1-1.27.23-1.89.39-.63.16-1.22.36-1.77.57-2.93,1.15-5.19,3.09-6.77,5.83h0c-1.37,2.37-2.01,4.77-1.93,7.21.08,2.43.87,4.87,2.37,7.33h0c.33.54.68,1.07,1.07,1.6.39.54.79,1.05,1.21,1.53h0c2.19,2.55,5.05,4.84,8.57,6.88h0s.03.02.03.02h0c.58.33,1.13.63,1.66.91.57.29,1.12.56,1.65.81,2.83,1.29,5.66,2.12,8.45,2.5h.03s0,0,0,0c.42.06.83.1,1.23.12.39.02.79.04,1.21.03,2.07-.02,4.06-.43,5.94-1.23,1.41-.6,2.65-1.38,3.72-2.32,1.08-.95,1.99-2.07,2.73-3.35h0s.07-.11.07-.11h0c.38-.68.71-1.37.99-2.06.28-.7.49-1.39.65-2.08.8-3.56.07-7.11-2.21-10.63h0c-1.21-1.87-2.76-3.64-4.66-5.31-1.88-1.66-4.11-3.23-6.69-4.72h0c-2.86-1.65-5.58-2.8-8.16-3.45h0ZM120.26,451.8l41.8,34.44.62.51-.3.74-2.26,5.59-.29.73-.78-.05-54.39-3.27-1.51-.09.57-1.41,2.4-5.94.3-.75.8.06,15.56,1.23,6.02-14.89-12.12-9.68-.63-.51.3-.75,2.23-5.52.56-1.38,1.15.94h0ZM160.06,487.41l-1.66,4.12-52.09-3.13,1.53-3.79,15.56,1.23.8.06.3-.75,6.62-16.39.3-.75-.64-.51-12.12-9.68,1.37-3.39,40.03,32.98h0ZM135.13,473.69l-4.27,10.56,13.43,1.15h0c2.09.18,4.09.38,5.99.59l.39.04-.38-.26c-1.42-.99-2.76-2-4.01-3.01h0s-11.14-9.07-11.14-9.07h0ZM128.28,484.81l-.55,1.37,1.48.13,14.9,1.28h0c2.17.19,4.15.38,5.93.58,1.83.21,3.52.42,5.06.64l.72-2.01c-1.51-.92-2.94-1.86-4.29-2.81-1.35-.94-2.65-1.92-3.89-2.93h0l-12.29-9.99-1.15-.93-.55,1.37-5.37,13.3h0ZM102.83,494.14l49.65,14.24,1.05.3-.3,1.05-1.59,5.53-.18.62-.63.14-40.97,9.28,34.89,10,1.05.3-.3,1.05-1.47,5.14-.3,1.05-1.05-.3-49.65-14.24-1.05-.3.3-1.05,1.58-5.5.18-.62.63-.14,41-9.26-34.93-10.01-1.05-.3.3-1.05,1.49-5.18.3-1.05,1.05.3h0ZM150.83,510.18l-47.55-13.64-.88,3.08,37.98,10.89-.06,2.12-44.53,10.05-1.1,3.83,47.55,13.64.87-3.05-37.93-10.87.06-2.12,44.48-10.08,1.11-3.86h0ZM86.81,560.82l44.04,6.19,1.79-12.73.15-1.08,1.08.15,6.04.85,1.09.15-.15,1.08-4.67,33.25-.15,1.08-1.08-.15-6.04-.85-1.08-.15.15-1.08,1.8-12.81-44.03-6.19-1.08-.15.15-1.08.78-5.55.15-1.08,1.08.15h0ZM131.62,569.32l-44.03-6.19-.48,3.39,44.03,6.19,1.08.15-.15,1.08-1.8,12.81,3.88.55,4.37-31.09-3.88-.55-1.79,12.73-.15,1.08-1.08-.15h0ZM135.63,591.47l-52.71-1.84-.04,1.09-.2,5.6-.04,1.08,1.09.04,23.23.81-.69,19.83-23.24-.81-1.08-.04-.04,1.09-.2,5.6-.04,1.08,1.09.04,51.62,1.8,1.09.04.04-1.09.2-5.6.04-1.08-1.1-.04-20.11-.7.69-19.83,20.12.7,1.08.04.04-1.09.2-5.6.04-1.09-1.09-.04h0ZM134.47,593.61l-.12,3.42-20.12-.7-1.08-.04-.04,1.09-.77,22.01-.04,1.08,1.09.04,20.11.7-.12,3.42-49.44-1.73.12-3.42,23.24.81,1.09.04.04-1.09.77-22.01.04-1.08-1.1-.04-23.23-.81.12-3.42,49.44,1.73h0ZM83.37,630.53l52.66,12.63.78.19.06.8.42,6.01.06.78-.73.3-50.32,20.9-1.4.58-.11-1.52-.45-6.39-.06-.8.75-.29,14.52-5.72-1.12-16.03-15.14-3.38-.8-.18-.06-.81-.41-5.94-.1-1.48,1.44.35h0ZM134.75,645.09l-50.44-12.09.26,3.65,15.14,3.38.8.18.06.81,1.23,17.64.06.8-.75.29-14.52,5.72.29,4.08,48.19-20.02-.31-4.43h0ZM106.33,643.69l.79,11.36,12.57-4.85h0s.01,0,.01,0h.02s1.65-.63,1.65-.63c.65-.25,1.16-.44,1.6-.6.94-.35,1.85-.68,2.74-.99l-.46-.07c-1.71-.27-3.36-.59-4.93-.95h0l-13.99-3.26h0ZM105.05,656.68l.1,1.48,1.38-.53,13.96-5.39h.01s.01,0,.01,0h0s1.63-.62,1.63-.62l1.58-.59c2.7-1,5.1-1.83,7.19-2.5l-.23-2.12c-1.74-.17-3.44-.38-5.08-.65-1.63-.26-3.22-.57-4.78-.92h0l-15.43-3.6-1.44-.34.1,1.47,1,14.31h0ZM87.38,676.78l-1.08.19.19,1.07.94,5.31.19,1.08,1.07-.19,35.79-6.31-32.8,26.3-.5.4.11.63.99,5.64.19,1.08,1.07-.19,50.87-8.97,1.08-.19-.19-1.08-.93-5.27-.19-1.08-1.08.19-35.75,6.3,32.75-26.3.51-.41-.11-.63-1-5.66-.19-1.08-1.07.19-50.87,8.97h0ZM137.56,670.15l-48.72,8.59.56,3.15,38.91-6.86.87,1.93-35.62,28.56.69,3.93,48.72-8.59-.55-3.12-38.86,6.85-.87-1.93,35.57-28.56-.7-3.95h0ZM96.97,720.82l49.12-15.96,1.04-.34.33,1.04,1.73,5.33.34,1.04-1.04.34-19.14,6.22,6.13,18.87,19.14-6.22,1.04-.34.34,1.04,1.73,5.33.34,1.04-1.04.33-49.12,15.96-1.04.34-.34-1.04-1.73-5.33-.34-1.04,1.04-.34,22.11-7.19-6.13-18.87-22.11,7.19-1.04.34-.34-1.04-1.73-5.33-.33-1.04,1.04-.34h0ZM145.73,707.28l1.06,3.25-19.14,6.22-1.04.34.34,1.04,6.8,20.94.34,1.04,1.04-.33,19.14-6.22,1.06,3.26-47.05,15.29-1.06-3.26,22.11-7.18,1.04-.34-.34-1.04-6.81-20.94-.33-1.04-1.04.34-22.11,7.18-1.06-3.26,47.05-15.29h0ZM116.39,776.05l-.97.49.5.97,2.45,4.8.49.97.97-.5,32.38-16.5-23.67,34.73-.36.54.29.57,2.6,5.1.5.97.97-.5,46.02-23.45.97-.5-.49-.97-2.43-4.77-.49-.97-.98.5-32.34,16.48,23.63-34.72.36-.54-.29-.57-2.61-5.12-.5-.98-.97.49-46.02,23.45h0ZM162.43,755.04l1.82,3.58-25.66,37.71,1.4,1.59,35.16-17.92,1.44,2.82-44.08,22.46-1.81-3.55,25.71-37.72-1.4-1.59-35.2,17.94-1.45-2.86,44.08-22.46h0ZM137.93,817.35l43.8-27.37.93-.58.58.93,2.97,4.76.58.92-.93.58-43.8,27.37-.92.58-.58-.93-2.97-4.75-.58-.93.93-.58h0ZM181.96,792.41l1.81,2.9-41.95,26.22-1.81-2.9,41.95-26.22h0ZM147.84,832.31l42.31-29.63.89-.63.63.89,17.56,25.08.62.89-.89.63-5,3.5-.89.62-.63-.89-13.72-19.6-11.17,7.82,12.81,18.3.63.89-.89.63-4.97,3.48-.89.63-.63-.89-12.81-18.3-12.62,8.84,14.29,20.41.63.89-.89.62-5,3.5-.89.63-.62-.89-18.13-25.89-.62-.89.89-.62h0ZM190.5,805.1l16.31,23.3-3.21,2.25-13.72-19.6-.62-.89-.89.63-12.96,9.07-.89.62.63.89,12.81,18.3-3.18,2.23-12.81-18.3-.62-.89-.89.62-14.4,10.09-.89.62.62.89,14.29,20.41-3.21,2.25-16.88-24.11,40.53-28.38h0ZM172.52,865.83l-.84.7.7.84,3.46,4.13.71.84.83-.7,27.84-23.36-15.26,39.18-.23.6.41.49,3.68,4.39.7.84.84-.7,39.57-33.2.84-.7-.7-.84-3.44-4.1-.7-.84-.84.7-27.81,23.33,15.21-39.16.23-.6-.41-.49-3.69-4.4-.7-.84-.83.7-39.57,33.2h0ZM212.66,835l-37.9,31.8,2.06,2.45,30.27-25.4,1.72,1.23-16.57,42.54,2.56,3.06,37.9-31.8-2.04-2.43-30.23,25.37-1.72-1.23,16.52-42.52-2.58-3.08h0ZM249.5,913.69l3.29,4.9.55.83-.77.63-.03.02h0c-.61.49-1.2.94-1.77,1.35-.58.41-1.17.81-1.77,1.18-3.05,1.91-6.08,3.09-9.09,3.53h-.04c-.67.1-1.35.15-2.02.17-.67.02-1.33,0-1.99-.07-3.36-.32-6.51-1.67-9.45-4.04h0s0,0,0,0c-.89-.72-1.7-1.49-2.43-2.29-.73-.81-1.37-1.65-1.92-2.53-2.84-4.52-3.34-9.95-1.5-16.27h0c.65-2.31,1.61-4.61,2.87-6.91,1.25-2.28,2.8-4.56,4.66-6.86h0s.03-.04.03-.04h0c1.01-1.25,2.03-2.4,3.05-3.45,1.02-1.05,2.06-2.02,3.12-2.9,5.47-4.54,11.17-6.53,17.11-5.95h0c1.92.2,3.75.65,5.47,1.37,1.72.72,3.35,1.69,4.88,2.93h0s.02.02.02.02h0c.51.42.99.84,1.43,1.28.45.44.87.9,1.26,1.37,2.01,2.43,3.19,5.22,3.55,8.37h0c.23,1.96.14,3.98-.27,6.07h0c-.41,2.06-1.14,4.2-2.18,6.4l-.45.95-.96-.41-5.27-2.23-1.03-.43.46-1.02c1.45-3.2,2.02-5.99,1.71-8.37-.3-2.29-1.43-4.24-3.41-5.84-2.08-1.68-4.26-2.58-6.55-2.71-2.32-.12-4.79.54-7.4,2h0,0c-.4.23-.79.46-1.14.7-.38.25-.77.52-1.16.81h0c-2.01,1.52-4.05,3.55-6.1,6.08-1.74,2.15-3.15,4.23-4.25,6.25-1.08,1.99-1.84,3.93-2.29,5.8h0v.02s0,0,0,0c-.17.7-.28,1.36-.35,1.99-.07.64-.09,1.26-.06,1.86.14,3.02,1.49,5.57,4.06,7.65,1.24,1,2.55,1.67,3.93,2.02h0c1.38.34,2.84.35,4.39.02h.02c.38-.08.76-.18,1.11-.29.37-.11.75-.24,1.12-.39,1.95-.77,3.92-2.03,5.9-3.77l.93-.82.69,1.03h0ZM250.42,918.96c-.3.23-.61.45-.91.67-.57.41-1.12.78-1.65,1.11-2.79,1.75-5.54,2.83-8.25,3.23h-.02c-.61.09-1.2.14-1.77.15-.58.01-1.16,0-1.73-.06-2.92-.28-5.68-1.47-8.28-3.57h0s0,0,0,0h0c-.81-.66-1.54-1.35-2.19-2.06-.64-.7-1.2-1.45-1.69-2.22-2.49-3.97-2.91-8.81-1.25-14.52h0c.6-2.15,1.5-4.29,2.69-6.45,1.19-2.18,2.68-4.36,4.44-6.54h0s.03-.04.03-.04h0c.96-1.19,1.94-2.29,2.92-3.3.98-1.01,1.97-1.93,2.95-2.74,5-4.15,10.17-5.98,15.5-5.46h0c1.7.17,3.32.58,4.85,1.22,1.53.64,2.98,1.51,4.34,2.6h0s.02.02.02.02h0c.45.37.88.75,1.28,1.15.4.39.77.79,1.1,1.2,1.73,2.1,2.76,4.51,3.07,7.23h0c.2,1.73.12,3.53-.25,5.4h0c-.32,1.6-.85,3.25-1.58,4.95l-3.28-1.39c1.29-3.16,1.77-6,1.44-8.52-.37-2.87-1.77-5.29-4.19-7.26-2.45-1.98-5.05-3.05-7.82-3.19-2.73-.15-5.59.61-8.57,2.27h-.01c-.4.23-.82.49-1.27.78-.42.28-.85.58-1.27.89h0c-2.15,1.62-4.31,3.77-6.48,6.45-1.83,2.26-3.32,4.46-4.48,6.59-1.17,2.17-2,4.28-2.49,6.33h0,0s0,.01,0,.01c-.18.76-.31,1.52-.39,2.28-.08.74-.1,1.47-.07,2.17.16,3.67,1.79,6.76,4.86,9.25,1.5,1.21,3.09,2.03,4.79,2.44h0c1.7.42,3.48.43,5.35.04h.01s0,0,0,0c.42-.09.85-.2,1.3-.34.43-.13.86-.28,1.29-.45,1.87-.74,3.73-1.86,5.59-3.36l2.05,3.05h0ZM260.65,914.67c-2.79,4.31-4.54,8.67-5.23,13.09-.14.88-.23,1.75-.29,2.61-.05.86-.07,1.73-.04,2.61h0s0,.11,0,.11h0c.18,5.03,1.72,9.18,4.61,12.47.56.63,1.18,1.24,1.85,1.82.67.58,1.39,1.11,2.15,1.61l.08.05h0c3.95,2.57,8.16,3.56,12.62,2.99.87-.11,1.74-.28,2.61-.51.88-.22,1.76-.51,2.65-.85h0s.05-.01.05-.01h0c4.15-1.61,7.93-4.36,11.32-8.25.65-.75,1.29-1.54,1.93-2.39.63-.84,1.24-1.71,1.83-2.62h.01s0-.02,0-.02c1.54-2.38,2.8-4.73,3.75-7.04.96-2.33,1.63-4.62,1.99-6.89h0c.48-3.06.45-5.94-.1-8.64-.11-.55-.24-1.07-.38-1.57-.15-.52-.31-1.04-.5-1.53h0s-.01-.04-.01-.04c-.94-2.52-2.32-4.72-4.14-6.57l.03.02c-.62-.59-1.97-2.19-7.35-4.77-1.76-.68-3.55-1.07-5.36-1.18-3.2-.19-6.46.52-9.77,2.11h0c-3.92,1.89-7.5,4.74-10.72,8.54-.61.73-1.23,1.5-1.83,2.32-.59.81-1.18,1.65-1.75,2.53h0ZM264.17,913.42c-.57.77-1.12,1.57-1.67,2.41v.02c-2.64,4.05-4.28,8.13-4.92,12.24-.12.79-.21,1.59-.26,2.41-.05.81-.06,1.62-.04,2.42v.1c.17,4.5,1.52,8.2,4.07,11.09.5.57,1.05,1.11,1.63,1.61.58.5,1.23.99,1.92,1.44l.08.05h0c3.5,2.28,7.22,3.16,11.15,2.66.77-.1,1.55-.25,2.34-.46.79-.2,1.6-.46,2.41-.78h0s.04-.02.04-.02h0c3.81-1.47,7.3-4.02,10.46-7.65.62-.71,1.23-1.47,1.82-2.25.59-.79,1.17-1.63,1.75-2.51h0s0-.02,0-.02h0c1.47-2.26,2.66-4.49,3.56-6.67.9-2.17,1.52-4.31,1.85-6.41h0c.44-2.8.41-5.42-.08-7.87-.09-.46-.21-.93-.34-1.41-.13-.45-.28-.91-.45-1.37h0s-.01-.04-.01-.04c-.92-2.46-2.31-4.56-4.18-6.3-.36-.33-.74-.66-1.15-.97-.42-.33-.84-.63-1.26-.9h-.01s-.01-.01-.01-.01h0c-2.72-1.76-5.49-2.73-8.3-2.9-2.82-.17-5.72.47-8.69,1.9h0c-3.64,1.75-6.97,4.41-10,7.99-.6.71-1.18,1.44-1.75,2.21h0ZM290.23,900.38c1.31.51,2.6,1.19,3.88,2.02h.01s.01.01.01.01h0c.5.33.97.66,1.4,1,.44.34.88.71,1.3,1.1l-.22-.09-6.38-4.05h0ZM267.27,919.08c-1.69,2.59-2.89,5.07-3.62,7.42-.72,2.31-.97,4.52-.76,6.6h0s0,.04,0,.04h0c.06.58.14,1.14.26,1.69h0c.11.55.25,1.06.41,1.55.83,2.5,2.36,4.47,4.58,5.91,1.94,1.26,3.93,1.92,5.96,1.96,2.04.04,4.16-.53,6.35-1.73h0s0,0,0,0c.51-.27,1.01-.57,1.49-.89.49-.32.97-.66,1.45-1.03,2.46-1.91,4.74-4.47,6.81-7.66h0s.02-.02.02-.02h0c.3-.47.62-.97.93-1.51.3-.51.58-1.02.84-1.51,1.34-2.58,2.26-5.16,2.74-7.72v-.05c.08-.35.13-.71.17-1.07.04-.37.07-.73.09-1.05.08-1.78-.19-3.49-.79-5.14h0c-.45-1.22-1.04-2.3-1.78-3.24-.74-.94-1.63-1.74-2.68-2.42h0l-.2-.12h0c-.57-.36-1.15-.67-1.72-.93h0c-.58-.26-1.16-.47-1.72-.63-2.9-.79-5.9-.31-8.98,1.46-1.74,1-3.43,2.34-5.07,4.02-1.65,1.69-3.25,3.72-4.79,6.1h0ZM261.56,925.87c-.8,2.59-1.09,5.08-.85,7.45h0v.03s0,0,0,0c.07.66.16,1.3.29,1.91h0c.13.61.29,1.21.48,1.79.99,2.99,2.81,5.34,5.46,7.06,2.29,1.48,4.66,2.26,7.11,2.31,2.43.05,4.91-.61,7.44-1.99h0s0,0,0,0c.55-.3,1.1-.62,1.65-.98.54-.35,1.07-.73,1.59-1.14,2.66-2.06,5.1-4.79,7.31-8.19h0v-.02s.01,0,.01,0c.37-.57.7-1.1.99-1.6.31-.53.61-1.07.89-1.61,1.44-2.77,2.42-5.55,2.95-8.33v-.05c.09-.42.15-.83.2-1.22.04-.39.08-.79.1-1.21.09-2.06-.22-4.06-.92-5.97h0c-.52-1.43-1.23-2.71-2.12-3.84-.89-1.13-1.96-2.09-3.2-2.9h0s-.2-.13-.2-.13h0c-.66-.42-1.32-.78-2-1.08h0c-.66-.3-1.35-.55-2.04-.73-3.48-.95-7.03-.4-10.64,1.68-1.92,1.11-3.77,2.56-5.54,4.37-1.76,1.79-3.45,3.94-5.07,6.44-1.79,2.76-3.08,5.42-3.87,7.97h0ZM288.95,962.11l21.83-46.81.46-.99.99.46,5.21,2.43.58.27.04.65,2.76,41.91,15.34-32.89.46-.99.99.46,4.85,2.26.99.46-.46.99-21.83,46.81-.46.99-.99-.46-5.19-2.42-.58-.27-.04-.65-2.73-41.94-15.36,32.93-.46.99-.99-.46-4.88-2.28-.99-.46.46-.99h0ZM312.3,917.21l3.63,1.69,2.99,45.51,2.08.39,16.68-35.76,2.87,1.34-20.91,44.83-3.61-1.68-2.96-45.55-2.08-.39-16.7,35.81-2.9-1.35,20.9-44.83h0ZM356.26,968.66l-.36,1.03,1.04.36,10.72,3.69-2.64,7.65c-.75.38-1.55.69-2.41.92-1.02.28-2.13.46-3.34.56-1.21.09-2.35.08-3.42-.04-1.05-.11-2.03-.33-2.97-.65-3.45-1.19-5.93-3.14-7.42-5.84h0c-.29-.52-.55-1.08-.77-1.67-.22-.59-.4-1.21-.55-1.87h0s0-.02,0-.02h0c-.44-1.95-.55-4.06-.32-6.35.23-2.31.8-4.81,1.73-7.5,1.03-2.99,2.27-5.53,3.72-7.63.27-.39.56-.78.86-1.16.29-.36.58-.7.87-1.03h0s0-.02,0-.02l.02-.02h0,0c2.11-2.31,4.36-3.8,6.75-4.46,2.36-.66,4.9-.53,7.61.4,1.3.45,2.46,1.06,3.47,1.81.21.15.39.31.56.45h0c.2.18.38.35.53.49h0s0,0,0,0h0c1.16,1.16,1.96,2.61,2.42,4.35.48,1.8.58,3.91.33,6.33l-.13,1.19h1.21s5.31.05,5.31.05h.97s.12-.95.12-.95c.35-2.74.38-5.18.11-7.3-.06-.46-.12-.87-.19-1.23-.08-.38-.17-.77-.28-1.17h0s-.02-.08-.02-.08h0c-1.16-3.99-3.51-7.1-7.06-9.32h0c-.69-.43-1.41-.83-2.17-1.18h0c-.77-.36-1.58-.7-2.42-.98h0s0,0,0,0h0c-2.96-1.03-5.84-1.44-8.61-1.26-.56.04-1.1.1-1.62.18-.51.08-1.04.19-1.59.32h-.06c-2.19.55-4.26,1.47-6.21,2.78-1.93,1.29-3.75,2.96-5.45,5-1.43,1.72-2.7,3.6-3.82,5.63-1.12,2.04-2.08,4.24-2.89,6.58-.92,2.69-1.56,5.28-1.9,7.76-.34,2.5-.39,4.88-.14,7.15.51,4.66,1.99,8.54,4.41,11.64,2.44,3.11,5.81,5.4,10.12,6.89,3.08,1.06,6.3,1.42,9.67,1.09,3.34-.33,6.8-1.34,10.4-3.04l.42-.2.15-.44,6.24-18.12.35-1.03-1.04-.35-16.95-5.84-1.03-.36-.36,1.04-1.99,5.76h0ZM359.96,964.64l-1.27,3.7,10.72,3.69,1.04.36-.36,1.03-3.13,9.1-.51.6c-.98.54-2.07.97-3.26,1.3-1.17.32-2.42.53-3.75.63-1.33.1-2.6.09-3.81-.05-1.22-.13-2.37-.38-3.44-.75-3.99-1.37-6.86-3.66-8.63-6.86h0c-.35-.63-.65-1.28-.9-1.97-.26-.68-.47-1.4-.64-2.14h0v-.02s0,0,0,0c-.49-2.18-.61-4.53-.36-7.05.25-2.5.86-5.17,1.83-7.99,1.09-3.16,2.43-5.89,3.99-8.16.32-.46.63-.89.95-1.28.33-.41.66-.8,1.01-1.18l.03-.04h0s0,0,0,0c2.38-2.59,4.96-4.27,7.73-5.05,2.81-.79,5.78-.64,8.91.44,1.52.52,2.89,1.24,4.08,2.13.22.17.45.35.68.55h0c.2.17.41.37.63.6h.01c1.44,1.45,2.43,3.23,2.99,5.34.46,1.75.63,3.72.49,5.92l3.16.02c.22-2.17.22-4.1,0-5.8-.04-.34-.1-.7-.18-1.09-.07-.37-.15-.7-.24-1h0l-.02-.08h0c-1.01-3.44-3.05-6.13-6.12-8.06h0c-.6-.38-1.25-.73-1.94-1.06h0c-.68-.32-1.42-.62-2.2-.89h0s-.01,0-.01,0h0c-2.69-.93-5.28-1.3-7.76-1.14h0c-.46.03-.94.09-1.43.16-.5.08-.97.17-1.42.28h-.06c-1.94.49-3.77,1.31-5.51,2.47-1.76,1.17-3.42,2.71-4.99,4.58-1.33,1.61-2.52,3.37-3.58,5.29-1.05,1.92-1.96,4-2.73,6.25-.89,2.58-1.49,5.03-1.81,7.35-.32,2.31-.36,4.52-.13,6.61.47,4.25,1.79,7.77,3.96,10.54,2.16,2.76,5.2,4.82,9.11,6.16,2.79.96,5.7,1.29,8.75.99,2.95-.29,6.04-1.18,9.26-2.65l5.73-16.65-14.89-5.13h0ZM392.52,981.35l5.3.45,1.1.09-.1,1.09c-.22,2.4-.02,4.49.61,6.25.61,1.71,1.63,3.13,3.06,4.25h0c.75.6,1.57,1.09,2.47,1.49h0c.9.4,1.88.7,2.95.91h.05c.38.08.75.14,1.12.18.39.05.75.08,1.07.09,1.75.07,3.31-.22,4.67-.87h0c1.04-.49,1.87-1.16,2.5-2,.64-.86,1.08-1.91,1.32-3.17v-.02c.08-.37.12-.73.14-1.07.02-.35.02-.68-.01-1-.15-1.63-.95-3.06-2.4-4.27h0s0,0,0,0c-.16-.13-.34-.27-.53-.4-.22-.15-.46-.32-.73-.5-1.43-.93-3.62-2.15-6.56-3.68h0c-1.52-.8-2.84-1.55-3.94-2.24-1.13-.7-2.06-1.36-2.78-1.97h0c-.3-.26-.6-.53-.89-.81h0c-.28-.28-.55-.57-.81-.86-1.32-1.51-2.23-3.23-2.76-5.14h0l-.03-.1h0c-.08-.3-.16-.61-.23-.93-.1-.46-.17-.94-.22-1.42h0c-.14-1.44-.07-2.93.23-4.46v-.02s0,0,0,0c.12-.62.27-1.23.45-1.83.18-.6.38-1.17.6-1.71,1.18-2.84,3.06-5.03,5.62-6.59h0c1.72-1.06,3.59-1.74,5.61-2.04,2-.3,4.13-.23,6.41.22h.02c.94.19,1.82.41,2.66.67.83.26,1.63.57,2.39.93,3.92,1.83,6.55,4.78,7.87,8.86h0l.02.05h0c.13.41.25.82.35,1.24h0c.1.41.19.83.26,1.25.37,2.12.33,4.28-.09,6.46l-.19.98-.99-.1-5.38-.54-1.09-.11.11-1.09c.32-3.02-.12-5.39-1.33-7.12-1.2-1.71-3.2-2.83-5.99-3.37l-.07-.02c-.34-.06-.69-.12-1.03-.16h0c-.32-.05-.65-.08-.98-.1-1.6-.09-3.01.12-4.22.62h0c-.94.39-1.69.95-2.26,1.67-.57.73-.97,1.65-1.18,2.76v.02c-.07.31-.1.61-.12.9-.02.28-.02.56,0,.84h0c.11,1.37.73,2.58,1.88,3.63h0c.12.11.26.23.41.35.16.12.34.26.55.4,1.1.75,2.76,1.69,4.97,2.79h.01s0,0,0,0h0s.01,0,.01,0c.64.32,1.16.58,1.59.8.52.26,1,.52,1.45.75h0c2.38,1.26,4.12,2.33,5.22,3.19,2.47,1.93,4.17,4.17,5.11,6.72.94,2.55,1.11,5.38.5,8.49v.02s0,0,0,0c-.08.4-.17.81-.28,1.24-.11.41-.23.81-.36,1.19-.68,2.01-1.69,3.82-3.03,5.41h0s0,0,0,0c-.27.32-.55.63-.84.94-.29.3-.59.58-.9.86h0c-1.58,1.4-3.4,2.41-5.44,3.04h0c-1.41.44-2.91.68-4.5.73-1.57.05-3.22-.1-4.94-.43h-.02c-.73-.15-1.46-.32-2.18-.53-.7-.2-1.37-.43-2.02-.69h0c-3.36-1.34-6-3.44-7.9-6.28-1.35-2.03-2.24-4.24-2.65-6.63-.41-2.37-.34-4.93.18-7.65l.19-.97.98.08h0ZM396.57,983.89l-3.24-.28c-.32,2.1-.32,4.07-.01,5.9.36,2.1,1.13,4.02,2.31,5.79,1.65,2.47,3.95,4.29,6.89,5.47h0c.58.23,1.19.44,1.82.62.62.18,1.28.34,1.98.47h.02c1.58.31,3.07.45,4.47.41,1.38-.04,2.68-.25,3.91-.64h0c1.74-.53,3.29-1.4,4.64-2.59h0c.26-.23.51-.47.77-.73.24-.26.49-.53.73-.82h0s0,0,0,0v-.02c1.17-1.39,2.05-2.96,2.64-4.71.12-.35.22-.7.32-1.05.09-.34.18-.71.25-1.1h0c.53-2.73.39-5.17-.41-7.34-.8-2.16-2.27-4.08-4.4-5.76-.99-.78-2.63-1.77-4.9-2.97h0c-.46-.24-.93-.49-1.42-.74-.57-.29-1.1-.55-1.55-.78h0s-.01,0-.01,0h-.02c-2.29-1.15-4.04-2.14-5.23-2.96-.23-.16-.45-.32-.66-.48-.2-.15-.38-.3-.53-.43h0s0,0,0,0h0s-.01-.02-.01-.02h0c-1.57-1.44-2.43-3.13-2.59-5.07h0c-.03-.37-.03-.75,0-1.14.02-.39.08-.78.15-1.18v-.02c.28-1.45.82-2.69,1.61-3.7.8-1.02,1.85-1.79,3.15-2.33h0c1.52-.63,3.25-.89,5.18-.79.36.02.74.06,1.14.11h0c.38.04.77.11,1.18.19h.07c3.38.67,5.83,2.09,7.37,4.28,1.36,1.94,1.97,4.45,1.8,7.51l3.3.33c.21-1.59.19-3.15-.08-4.7-.06-.36-.14-.72-.23-1.08h0c-.09-.36-.19-.73-.31-1.09h0s-.02-.06-.02-.06h0c-1.13-3.48-3.37-5.99-6.72-7.56-.65-.3-1.36-.58-2.13-.82-.76-.24-1.57-.44-2.41-.61h-.02c-2.03-.4-3.93-.46-5.68-.2-1.73.26-3.33.84-4.79,1.74h0c-2.15,1.32-3.73,3.17-4.73,5.57-.2.48-.38.98-.53,1.49-.15.51-.28,1.05-.4,1.63h0c-.26,1.35-.33,2.62-.21,3.84h0c.04.4.1.8.19,1.2.05.24.11.5.19.77h0s.02.09.02.09v.02c.45,1.6,1.22,3.04,2.32,4.31.22.25.45.49.69.72.24.23.5.47.77.7h0s.02.01.02.01c.64.54,1.48,1.13,2.52,1.78,1.07.67,2.34,1.39,3.8,2.16,3.01,1.55,5.25,2.81,6.74,3.78.3.19.57.38.81.55.26.19.48.35.66.49h.01c1.92,1.61,2.97,3.54,3.18,5.77.04.43.05.87.02,1.32-.03.45-.08.91-.17,1.37v.02c-.31,1.58-.88,2.93-1.72,4.05-.85,1.14-1.95,2.03-3.32,2.68h0c-1.68.81-3.58,1.16-5.7,1.08-.43-.02-.84-.05-1.24-.1-.41-.05-.84-.11-1.28-.2h-.05c-1.22-.24-2.36-.6-3.42-1.07h0c-1.06-.47-2.03-1.06-2.93-1.76h0c-1.77-1.38-3.03-3.13-3.78-5.24-.63-1.77-.9-3.8-.8-6.08h0ZM426.75,1005.02l-.57,1.37,1.48.13,5.93.52.81.07.3-.76,5.71-14.42,16,1.4,3.38,15.23.17.78.79.07,6.38.56,1.51.13-.35-1.48-12.78-52.97-.18-.77-.78-.07-6-.52-.79-.07-.31.75-20.71,50.04h0ZM449.17,956.55l-19.84,47.92,3.64.32,5.71-14.42.3-.76.81.07,17.61,1.54.8.07.17.78,3.38,15.23,4.08.36-12.23-50.73-4.43-.39h0ZM443.35,984.41l5.41-13.31h0c.61-1.52,1.18-3.1,1.71-4.72l.14-.44c.36,1.94.77,4.03,1.25,6.28l2.83,13.18-11.35-.99h0ZM455.98,987.7l-14.29-1.25-1.47-.13.56-1.37,5.97-14.68h0c.59-1.46,1.14-2.99,1.66-4.58.52-1.6,1-3.24,1.43-4.92l2.13.11c.48,3.09,1.16,6.72,2.04,10.87l3.14,14.63.31,1.44-1.47-.13h0ZM473.08,1008.21l-1.8-51.62-.04-1.09,1.09-.04,5.75-.2.64-.02.33.56,21.49,36.1-1.27-36.29-.04-1.09,1.1-.04,5.35-.19,1.09-.04.04,1.09,1.8,51.62.04,1.09-1.09.04-5.72.2-.64.02-.33-.55-21.48-36.14,1.27,36.32.04,1.08-1.1.04-5.38.19-1.08.04-.04-1.09h0ZM473.49,957.6l1.73,49.45,3.21-.11-1.38-39.49,2.03-.59,23.33,39.24,3.98-.14-1.73-49.44-3.17.11,1.38,39.44-2.02.59-23.33-39.2-4.01.14h0ZM531.82,1004.05l-9.85-50.71-.21-1.07,1.08-.21,5.5-1.07,1.07-.21.21,1.08,3.84,19.75,19.47-3.78-3.84-19.76-.21-1.07,1.08-.21,5.5-1.07,1.07-.21.21,1.07,9.86,50.7.21,1.07-1.08.21-5.5,1.07-1.07.21-.21-1.07-4.44-22.82-19.47,3.78,4.44,22.82.21,1.07-1.07.21-5.5,1.07-1.07.21-.21-1.08h0ZM524.32,954.01l9.44,48.56,3.36-.65-4.44-22.83-.21-1.07,1.08-.21,21.62-4.2,1.07-.21.21,1.07,4.44,22.82,3.36-.65-9.44-48.56-3.36.65,3.84,19.75.21,1.07-1.07.21-21.62,4.2-1.07.21-.21-1.07-3.84-19.75-3.36.65h0ZM566.48,971.65h0c1.68,4.89,4.07,8.98,7.16,12.26.61.65,1.24,1.26,1.89,1.83.65.57,1.34,1.12,2.05,1.64h.01c4.08,2.97,8.32,4.31,12.72,4.04.85-.05,1.71-.17,2.58-.34.87-.18,1.74-.42,2.6-.71h0s.02-.01.02-.01h0c4.47-1.54,7.85-4.25,10.15-8.13.43-.73.84-1.53,1.2-2.38.37-.85.69-1.73.96-2.62h0s0-.01,0-.01h0c1.28-4.24,1.44-8.89.48-13.95-.19-.98-.42-1.97-.69-2.98-.27-1-.58-2.02-.94-3.06h0s-.02-.07-.02-.07h0c-.92-2.68-2-5.11-3.24-7.29-1.24-2.19-2.65-4.13-4.21-5.81-2.12-2.27-4.42-4.02-6.9-5.26-.48-.24-.97-.46-1.47-.67-.47-.19-.97-.37-1.51-.54h0s-.01-.01-.01-.01c-2.42-.77-4.87-1.04-7.31-.82h0s-1.19.15-1.19.15h0c-.49.08-.96.17-1.44.29h0c-.54.13-1.09.29-1.65.47h0s-.27.09-.27.09h-.01c-3.2,1.1-6.08,2.82-8.33,5.39-2.12,2.4-3.57,5.41-4.35,9-.92,4.23-.88,8.79.13,13.67.2.95.43,1.91.7,2.87.28,1,.58,1.97.91,2.93h0v.04h.01ZM568.53,970.9v.04h.02c1.58,4.6,3.81,8.42,6.68,11.47.55.58,1.13,1.14,1.74,1.68.61.54,1.24,1.04,1.89,1.51h0c3.66,2.66,7.43,3.87,11.31,3.63.75-.05,1.51-.15,2.27-.3.75-.15,1.53-.37,2.32-.64h0s.02,0,.02,0h0c3.96-1.37,6.96-3.76,8.98-7.18.41-.69.77-1.4,1.09-2.13.31-.73.6-1.53.86-2.39h0s0,0,0,0h0c1.18-3.9,1.32-8.21.43-12.91-.18-.92-.39-1.87-.65-2.82-.26-.96-.56-1.94-.89-2.93h0l-.02-.07h0c-.88-2.57-1.91-4.87-3.07-6.93-1.16-2.04-2.46-3.84-3.91-5.4-1.94-2.07-4.03-3.67-6.28-4.79-.44-.22-.88-.42-1.32-.6-.47-.19-.92-.36-1.35-.49h0s-.01,0-.01,0c-2.43-.77-4.88-.98-7.32-.63-.48.07-.97.16-1.46.28h0c-.49.12-.99.26-1.47.42h0l-.26.08h0c-3.07,1.06-5.54,2.65-7.4,4.77-1.87,2.12-3.15,4.79-3.85,8.02-.86,3.94-.82,8.2.13,12.77.19.89.41,1.8.66,2.73.25.89.54,1.83.87,2.81h0ZM574.04,969.16c-.93-2.69-1.55-5.2-1.86-7.53-.31-2.32-.32-4.47-.04-6.47h0c.51-3.58,2.02-6.27,4.5-8.07.49-.35,1.01-.67,1.58-.96.58-.3,1.19-.56,1.82-.77h.01s.01,0,.01,0h.01c1.18-.41,2.37-.61,3.56-.62,1.2,0,2.42.19,3.65.59,1.68.54,3.2,1.4,4.56,2.56.27.23.53.47.78.72.25.26.5.52.74.79l.02.02h.01c1.71,1.97,3.18,4.27,4.38,6.91.24.52.47,1.06.68,1.59.2.49.4,1.05.62,1.68h0s0,.01,0,.01h0c1.24,3.6,1.86,6.96,1.85,10.07,0,.57-.03,1.16-.08,1.78-.05.59-.12,1.17-.22,1.72v.03c-.41,2.46-1.27,4.49-2.56,6.07-1.28,1.57-3.02,2.73-5.21,3.49-2.5.86-5,.85-7.48-.04h0c-.49-.18-.98-.39-1.47-.63-.5-.25-1-.53-1.49-.84h0s-.02-.02-.02-.02h0c-1.76-1.12-3.34-2.67-4.72-4.66-1.41-2.02-2.61-4.5-3.62-7.42h0ZM575.87,977.83c-1.52-2.19-2.82-4.85-3.89-7.96-.97-2.8-1.61-5.46-1.95-7.96-.34-2.52-.35-4.87-.04-7.05h0c.6-4.19,2.4-7.37,5.38-9.53.58-.42,1.2-.8,1.87-1.14.65-.33,1.35-.62,2.11-.89h.01s.01,0,.01,0h0c1.4-.48,2.82-.73,4.26-.73,1.43,0,2.88.22,4.33.69,1.96.63,3.74,1.63,5.31,2.98.3.26.6.54.9.83.28.28.56.57.83.88h0s.02.03.02.03c1.86,2.13,3.45,4.61,4.74,7.46.25.54.49,1.11.72,1.69.25.63.47,1.22.66,1.77h0s0,.01,0,.01c1.31,3.82,1.97,7.42,1.95,10.79,0,.69-.03,1.34-.08,1.95-.05.63-.13,1.27-.24,1.9v.03c-.48,2.84-1.48,5.2-3.02,7.09-1.55,1.9-3.61,3.29-6.19,4.18-2.99,1.03-5.96,1.01-8.93-.04h0c-.57-.2-1.14-.45-1.71-.73-.56-.28-1.12-.6-1.68-.95h-.02s0-.02,0-.02c-2.02-1.28-3.81-3.04-5.35-5.26h0ZM653.13,942.54l5.8-1.12.98-.19.27.97.02.08c.2.71.38,1.42.54,2.15.16.7.29,1.4.4,2.09.56,3.54.46,6.77-.3,9.69h0s0,.02,0,.02h0c-.18.66-.39,1.3-.63,1.93-.25.63-.53,1.23-.84,1.81-1.61,2.98-4.08,5.35-7.42,7.13h-.04s0,.02,0,.02c-1.01.53-2.03.98-3.06,1.33-1.03.36-2.05.61-3.08.78-5.26.84-10.45-.82-15.55-4.98h0c-1.87-1.5-3.61-3.28-5.23-5.34-1.61-2.05-3.11-4.37-4.5-6.97h0l-.02-.04h0c-.74-1.41-1.4-2.79-1.98-4.16-.58-1.38-1.07-2.72-1.46-4.01-2.04-6.8-1.64-12.83,1.21-18.07h0c.93-1.69,2.06-3.2,3.4-4.51,1.34-1.31,2.87-2.43,4.6-3.35h0l.03-.02c.57-.3,1.15-.58,1.74-.82.59-.24,1.17-.45,1.76-.62,3.02-.9,6.05-.9,9.09,0h0c1.89.55,3.72,1.43,5.48,2.62,1.74,1.19,3.43,2.69,5.04,4.51l.69.78-.75.73-4.11,3.98-.8.78-.76-.82c-2.38-2.58-4.73-4.19-7.04-4.84-2.23-.62-4.46-.34-6.71.85-2.36,1.26-4.05,2.92-5.06,4.98-1.02,2.08-1.37,4.61-1.05,7.58h0v.03c.05.44.12.88.2,1.32.08.43.18.89.3,1.38.61,2.43,1.68,5.09,3.21,7.96h0s0,0,0,0h0c.35.65.72,1.32,1.11,1.99.38.63.76,1.24,1.14,1.82,1.96,2.97,4.06,5.27,6.28,6.91h0s.04.03.04.03h0c.56.41,1.13.77,1.7,1.09,1.14.63,2.28,1.04,3.41,1.25,2.25.41,4.54,0,6.87-1.24,1.41-.75,2.54-1.69,3.39-2.83.85-1.13,1.43-2.48,1.74-4.03h0v-.03c.08-.39.14-.77.18-1.13.04-.4.07-.8.08-1.19.05-2.09-.34-4.39-1.17-6.89l-.39-1.18,1.22-.23h0ZM658.34,943.75l-3.6.7c.65,2.28.95,4.43.91,6.43-.01.48-.04.93-.09,1.37-.05.47-.11.91-.2,1.33v.04s0,0,0,0c-.37,1.87-1.09,3.51-2.13,4.91-1.05,1.4-2.42,2.55-4.12,3.45-2.77,1.47-5.53,1.96-8.29,1.45-1.37-.25-2.73-.75-4.07-1.48-.64-.36-1.29-.77-1.94-1.25h0s-.04-.03-.04-.03h0c-2.44-1.8-4.71-4.29-6.81-7.47-.41-.62-.81-1.26-1.2-1.92-.37-.63-.76-1.32-1.15-2.06h0s0-.01,0-.01c-1.61-3.03-2.74-5.85-3.4-8.46-.12-.5-.23-1-.33-1.52-.09-.51-.17-1-.22-1.47v-.03s0,0,0,0c-.36-3.39.06-6.31,1.26-8.78,1.22-2.49,3.21-4.47,5.99-5.95,2.76-1.47,5.53-1.81,8.32-1.03,2.44.69,4.87,2.24,7.28,4.66l2.56-2.48c-1.28-1.35-2.59-2.48-3.93-3.39-1.57-1.07-3.19-1.85-4.86-2.34h0c-2.62-.78-5.25-.78-7.86,0-.52.15-1.03.34-1.54.55-.51.21-1.03.45-1.55.73h-.03s0,.01,0,.01c-1.56.83-2.92,1.82-4.1,2.98-1.18,1.16-2.18,2.49-3.01,4h0c-2.56,4.7-2.9,10.17-1.03,16.4.37,1.25.83,2.51,1.37,3.78.54,1.28,1.17,2.61,1.9,3.98l.03.05h0c1.32,2.49,2.75,4.71,4.28,6.65,1.52,1.93,3.15,3.6,4.88,4.99h0c4.6,3.76,9.22,5.26,13.84,4.52.9-.14,1.8-.37,2.71-.69.9-.31,1.82-.72,2.75-1.2h.03s0-.02,0-.02c2.95-1.57,5.13-3.65,6.52-6.23.27-.5.51-1.02.73-1.56.22-.54.4-1.11.56-1.7h0c.68-2.64.77-5.58.26-8.82-.1-.63-.22-1.29-.37-1.95-.08-.37-.18-.76-.28-1.15h0ZM674.3,953.04l.59.91.91-.59,4.7-3.05.91-.59-.59-.92-12.66-19.5,16.64-10.8,12.66,19.5.6.91.91-.59,4.7-3.05.92-.6-.6-.91-28.13-43.32-.59-.91-.92.59-4.7,3.05-.92.6.6.91,10.96,16.88-16.64,10.8-10.96-16.88-.59-.92-.92.6-4.7,3.05-.91.59.6.91,28.13,43.32h0ZM648.59,909.45l26.94,41.49,2.87-1.86-12.67-19.5-.59-.92.92-.59,18.47-11.99.92-.59.59.91,12.66,19.5,2.87-1.87-26.95-41.49-2.87,1.87,10.96,16.88.59.91-.91.59-18.47,11.99-.91.59-.6-.91-10.96-16.88-2.87,1.87h0ZM712.17,926.81l-32.51-40.14-.69-.85.85-.69,4.36-3.53.85-.68.68.84,32.51,40.14.69.85-.85.68-4.35,3.53-.85.69-.68-.85h0ZM682.04,886.14l2.66-2.15,31.13,38.45-2.66,2.16-31.14-38.45h0ZM736.81,907.04l-37.78-35.23-.8-.75.74-.8,5.75-6.17.57-.61.74.39,36.96,19.46-2.38-3.86h0s-19.36-31.94-19.36-31.94l-.43-.71.56-.6,5.14-5.51.75-.8.8.74,37.78,35.23.8.75-.74.8-3.68,3.94-.75.8-.8-.75-25.91-24.16,19.18,31.81.42.7-.56.6-3.44,3.68-.57.61-.73-.38-33.45-17.35,26.33,24.55.8.75-.74.8-3.68,3.94-.74.8-.8-.74h0ZM701.32,870.96l4.44-4.76,39.75,20.93,1.44-1.54-4.47-7.25h0s-18.92-31.22-18.92-31.22l3.84-4.11,36.18,33.74-2.19,2.34-30.82-28.74-1.68,1.36,22.79,37.8-2.31,2.48-39.79-20.64-1.24,1.77,31.36,29.24-2.19,2.35-36.18-33.74h0ZM773.24,868.36l.86.67.67-.86,3.45-4.42.67-.86-.86-.67-40.7-31.8-.86-.67-.67.86-3.45,4.42-.67.86.86.67,40.7,31.8h0ZM734.74,835.51l38.99,30.46,2.11-2.7-38.99-30.46-2.11,2.7h0ZM784.05,854.79l.89.62.62-.89,3.09-4.41.63-.89-.89-.62-29.77-20.85,41.79,4.6.64.07.37-.53,3.28-4.69.62-.89-.89-.63-42.31-29.63-.89-.62-.63.89-3.07,4.38-.63.89.89.63,29.73,20.82-41.76-4.56-.64-.07-.37.53-3.3,4.71-.62.89.89.63,42.31,29.63h0ZM743.88,824l40.52,28.38,1.84-2.63-32.37-22.66.74-1.98,45.39,4.99,2.29-3.27-40.53-28.38-1.82,2.6,32.33,22.64-.74,1.98-45.35-4.95-2.3,3.29h0ZM810.13,817.62l-46.02-23.45-.97-.5.5-.97,2.54-4.99.5-.97.97.5,17.93,9.13,9.01-17.67-17.93-9.13-.97-.5.5-.97,2.55-4.99.49-.97.98.49,46.02,23.45.97.49-.5.97-2.55,4.99-.5.97-.97-.5-20.72-10.56-9,17.67,20.71,10.55.97.5-.49.97-2.54,4.99-.5.97-.97-.5h0ZM766.07,792.72l1.55-3.05,17.93,9.14.97.5.5-.97,10-19.62.5-.97-.97-.5-17.93-9.13,1.55-3.05,44.08,22.46-1.55,3.05-20.72-10.56-.97-.5-.5.97-10,19.62-.5.97.97.5,20.71,10.55-1.55,3.05-44.08-22.46Z"/>
        <polygon class="cls-3" points="428.35 644.44 418.68 663.47 437.96 662.3 428.35 644.44"/>
        <polygon class="cls-2" points="821.68 563.82 771.37 583.78 706.17 541.66 760.29 530.08 828.62 528.96 821.68 563.82"/>
        <path class="cls-1" d="M722.1,582.75c44.97,17.66,64.49,52.18,73.85,106.33-2.8,16.77-6.41,17.77-18.27,32.67-2.95,3.7-20.06,11.49-31.25,13.75l28.21,12.9c6.95-1.38,16.95-7.95,25.32-16.57,5.63-5.8,17.83-20.81,21.11-31.06-.36-3.23.01-18.1-.19-25.18,2.05-1.46,3.94-3.31,8.31-5.98l2.66,44.7-23.92,33.56,39.21-.86c3.71-9.51,10.63-22.24,14.55-34.11,2.15-11.35,5.77-26.61,6.39-41.89-12.42-38.75-29.13-68.3-54.15-91.61-15.81-14.73-43.25-29.74-75.42-40.08-8.38,1.59-20.81,4.82-32.3,8.07l-15.25,26.57c8.9.53,19.95,3.81,31.12,8.78h0ZM771.29,541.29c14.74-3.77,21.55-6.18,34.93-9.41,0,0,5.3-.31,10.49.49,49.78,7.73,88.65,39.07,106.81,83.11-3.47,42.42-11.82,89.91-24.7,109.12-.1.12-.23.24-.39.37-9.68,3.06-19.48,4.72-29.04,7.09,4.21-11.35,4.4-10.61,8.5-29.17,1.47-8.9,4.66-17.53,4.34-25.89-10.13-55.96-54.09-118.51-110.94-135.71Z"/>
        <path class="cls-2" d="M774.55,692.16c-1.52,7.69-3.04,15.38-4.57,23.07-8.16,6.25-9.46,11.9-30.17,20.8l21.45,16.85,17.47.9c-5.96-6.51-10.47-11.43-16.43-17.94,6.99-4.32,16.22-15.74,22.9-23.19l2.22-24.89-12.87,4.39Z"/>
        <path class="cls-2" d="M741.84,593.29c-16.88-10.59-36.62-18.48-50.86-19.32l19.02-33.13-19.53,5.73c-5.58,9.2-14.86,23.26-23.18,35.04,29.04.45,41.96,6.95,56.51,13.31,3.35-2.18,14.69.54,18.04-1.64Z"/>
      </g>
    </g>
  </g>
</svg>